<?xml version="1.0" standalone="no"?>
<!DOCTYPE svg PUBLIC "-//W3C//DTD SVG 20010904//EN"
 "http://www.w3.org/TR/2001/REC-SVG-20010904/DTD/svg10.dtd">
<svg version="1.0" xmlns="http://www.w3.org/2000/svg"
 width="256.000000pt" height="256.000000pt" viewBox="0 0 256.000000 256.000000"
 preserveAspectRatio="xMidYMid meet">

<rect height="256" fill="antiquewhite" rx="48" ry="48" width="256"></rect>
<g transform="translate(0.000000,256.000000) scale(0.100000,-0.100000)"
fill="darkslategray" stroke="none">
<path d="M374 2545 c-175 -38 -317 -179 -359 -356 -12 -54 -15 -190 -15 -909
0 -918 0 -911 56 -1022 61 -120 207 -226 340 -248 78 -13 1690 -13 1768 0 191
31 355 196 385 390 7 41 11 369 11 890 0 908 0 906 -61 1021 -38 70 -128 158
-201 195 -105 53 -115 54 -1023 53 -659 0 -853 -3 -901 -14z m1821 -166 c68
-25 147 -99 178 -166 l22 -48 0 -885 0 -885 -22 -47 c-26 -57 -95 -128 -155
-160 l-43 -23 -895 0 -895 0 -43 23 c-60 32 -129 103 -155 160 l-22 47 0 885
0 885 22 48 c30 65 110 141 175 166 52 19 75 20 915 20 849 1 863 1 918 -20z"/>
<path d="M910 1705 l0 -425 -105 0 -105 0 0 160 0 160 -105 0 -105 0 0 -137 1
-138 74 -77 74 -78 169 0 169 0 76 79 77 79 0 401 0 401 -110 0 -110 0 0 -425z"/>
<path d="M1417 2052 l-77 -77 0 -110 0 -110 160 -160 160 -160 0 -77 0 -78
-60 0 c-52 0 -73 7 -160 50 l-100 50 0 -28 c0 -21 18 -45 78 -105 l77 -77 110
0 110 0 78 78 77 77 0 110 0 110 -160 160 -160 160 0 77 0 78 60 0 c52 0 73
-7 160 -50 l100 -50 0 28 c0 21 -18 45 -78 105 l-77 77 -110 0 -110 0 -78 -78z"/>
<path d="M460 720 l0 -360 200 0 200 0 0 40 0 40 -120 0 -120 0 0 320 0 320
-80 0 -80 0 0 -360z"/>
<path d="M1020 1040 l0 -40 80 0 80 0 0 40 0 40 -80 0 -80 0 0 -40z"/>
<path d="M1980 1000 l0 -80 -40 0 -40 0 0 -40 0 -40 40 0 40 0 0 -182 0 -182
57 -58 57 -58 63 0 63 0 0 40 0 40 -40 0 -40 0 0 200 0 200 40 0 40 0 0 40 0
40 -40 0 -40 0 0 80 0 80 -80 0 -80 0 0 -80z"/>
<path d="M1020 640 l0 -280 80 0 80 0 0 280 0 280 -80 0 -80 0 0 -280z"/>
<path d="M1340 640 l0 -280 80 0 80 0 0 240 0 240 80 0 80 0 0 -240 0 -240 80
0 80 0 0 223 0 223 -58 57 -58 57 -182 0 -182 0 0 -280z"/>
</g>
</svg>
